<?xml version="1.0" standalone="no"?>
<!DOCTYPE svg PUBLIC "-//W3C//DTD SVG 20010904//EN"
 "http://www.w3.org/TR/2001/REC-SVG-20010904/DTD/svg10.dtd">
<svg version="1.0" xmlns="http://www.w3.org/2000/svg"
 width="512.000000pt" height="512.000000pt" viewBox="0 0 512.000000 512.000000"
 preserveAspectRatio="xMidYMid meet">
<metadata>
Created by potrace 1.11, written by Peter Selinger 2001-2013
</metadata>
<g transform="translate(0.000000,512.000000) scale(0.100000,-0.100000)"
fill="#000000" stroke="none">
<path d="M2439 4216 c-2 -2 -45 -6 -95 -9 -50 -4 -97 -8 -105 -11 -8 -3 -27
-7 -44 -10 -104 -16 -110 -17 -262 -60 -29 -8 -53 -11 -53 -8 0 4 -4 2 -8 -4
-4 -5 -45 -25 -92 -43 -86 -34 -233 -108 -282 -142 -14 -11 -31 -19 -37 -19
-6 0 -11 -4 -11 -8 0 -5 -12 -15 -27 -23 -16 -8 -33 -18 -39 -24 -6 -5 -26
-21 -44 -35 -37 -28 -199 -187 -243 -238 -15 -18 -52 -67 -82 -110 -30 -42
-59 -83 -65 -89 -6 -7 -11 -16 -12 -20 -3 -21 -53 -111 -59 -108 -4 3 -6 -1
-5 -8 1 -16 -66 -191 -76 -195 -5 -2 -6 -7 -3 -12 3 -5 0 -21 -6 -36 -11 -30
-36 -145 -45 -204 -11 -79 -20 -171 -18 -185 1 -8 -3 -15 -9 -15 -8 0 -8 -3
-2 -8 6 -4 10 -52 11 -107 1 -141 11 -234 40 -360 33 -141 34 -144 55 -190 6
-12 11 -27 13 -35 7 -38 95 -223 109 -228 4 -2 7 -8 7 -14 0 -9 82 -133 125
-188 38 -49 255 -259 294 -286 23 -14 38 -31 34 -37 -3 -6 -1 -7 5 -3 7 4 38
-11 70 -33 32 -23 61 -41 64 -41 4 0 29 -13 55 -28 145 -85 381 -164 618 -206
118 -21 458 -29 597 -13 85 9 317 56 340 68 9 5 21 8 25 8 8 -2 17 1 97 32 27
10 52 19 56 19 17 0 184 83 262 130 112 68 122 74 128 80 3 3 23 18 45 35 57
42 99 80 174 159 101 106 104 109 141 162 19 27 38 50 42 52 4 2 8 8 8 14 0 5
13 28 29 51 50 73 158 317 176 397 2 8 11 47 20 85 10 39 19 88 21 110 3 22 6
49 9 60 2 11 4 33 4 48 1 20 5 26 14 21 9 -6 9 -4 1 7 -6 8 -9 30 -8 49 7 75
0 279 -11 338 -1 9 -6 37 -10 62 -40 259 -186 585 -340 759 -16 18 -29 37 -28
42 2 5 -4 9 -12 9 -8 0 -15 4 -15 10 0 21 -187 186 -290 255 -25 16 -47 32
-50 35 -17 17 -208 115 -295 152 -100 42 -318 102 -411 113 -32 4 -63 10 -68
13 -15 9 -418 26 -427 18z m91 -899 c0 -9 2 -9 9 1 11 18 114 10 226 -19 66
-17 201 -86 241 -124 20 -19 40 -35 43 -35 3 -1 17 -15 31 -31 14 -17 35 -43
47 -57 13 -15 23 -35 23 -45 0 -10 4 -16 9 -13 8 6 18 -9 19 -28 0 -5 4 -12 9
-15 5 -3 17 -26 27 -51 10 -25 22 -52 26 -61 5 -9 16 -52 25 -94 9 -43 18 -82
21 -87 3 -4 0 -8 -7 -8 -8 0 -8 -4 1 -15 20 -24 7 -281 -20 -380 -12 -44 -25
-84 -29 -90 -5 -5 -11 -22 -14 -36 -15 -60 -132 -213 -222 -288 -43 -36 -137
-84 -210 -108 -70 -23 -98 -26 -215 -27 -166 -1 -256 22 -387 98 -110 63 -237
215 -282 336 -7 19 -17 44 -21 55 -12 28 -22 71 -36 147 -10 55 -10 291 0 343
5 22 10 49 11 60 2 11 4 21 4 23 1 1 1 3 0 5 -1 2 27 76 46 122 5 11 9 23 9
27 1 10 100 157 123 183 33 38 133 115 181 139 68 34 163 66 212 71 23 2 44 5
46 7 9 10 54 6 54 -5z"/>
</g>
</svg>
